# xmcd
#
# Track frame offsets:
# 150
# 16521
# 29046
# 42902
# 63425
# 86355
# 99621
# 117131
# 135203
# 146454
# 175646
# 190212
# 205469
# 217472
#
# Disc length: 3132 seconds
#
#
# Revision: 6
# Processed by: cddbd v1.5.2PL0 Copyright (c) Steve Scherf et al.
# Submitted via: FreeRIP 2.945 
#
DISCID=c10c3a0e
DTITLE=Various Artist - O bom do forró - cd2
DYEAR=2002
DGENRE=Country
TTITLE0=Bicho de pé - Nosso xote
TTITLE1=Peixe Elétrico - Felicidade
TTITLE2=Guentae! - Sapatilha 37
TTITLE3=Trio Forrozao - Até mais vê
TTITLE4=Trio Nordestino - Menina de colo and O neném and Paixão de beata (Neném mulher)
TTITLE5=Cyro Aguiar - Xotoque
TTITLE6=Raiz do Sana - A imperatriz e o poeta
TTITLE7=Chama Chuva - Samarina
TTITLE8=Fagner - Pedras que cantam
TTITLE9=Alceu Valença - Baiao vem morena and O canto da ema
TTITLE10=Banda Magia do Forrò - Estrada do sol (Alle porte del sole)
TTITLE11=Banda Cebola Ralada - Não toca peão
TTITLE12=Roberta Miranda - Atração fatal
TTITLE13=Banda Styllus - Toque toque dj
EXTD=YEAR: 2002
EXTT0=
EXTT1=
EXTT2=
EXTT3=
EXTT4=
EXTT5=
EXTT6=
EXTT7=
EXTT8=
EXTT9=
EXTT10=
EXTT11=
EXTT12=
EXTT13=
PLAYORDER=
